# xmcd
#
# Track frame offsets:
#	150
#	12101
#	36607
#	53068
#	70319
#	91213
#	109649
#	129081
#	143093
#	153369
#	170669
#	185982
#
# Disc length: 2629 seconds
#
# Revision: 1
# Processed by: cddbd v1.5.2PL0 Copyright (c) Steve Scherf et al.
# Submitted via: audiograbber 1.83.01
#
DISCID=a10a430c
DTITLE=Jonno Zilber - Bigger Better Zilber
DYEAR=2008
DGENRE=Blues
TTITLE0=Johnny Four-Flusher: Act 1
TTITLE1=First We Take Manhattan
TTITLE2=I'm Goin'
TTITLE3=John Brown
TTITLE4=Johnny Four-Flusher: Act 2
TTITLE5=Can't Sleep
TTITLE6=What Little I Know
TTITLE7=Locomotive Breath
TTITLE8=Johnny Four-Flusher: Act 3
TTITLE9=Second Chances
TTITLE10=Johnny Too Bad
TTITLE11=Johnny Four-Flusher: Act 4
EXTD=
EXTT0=
EXTT1=
EXTT2=
EXTT3=
EXTT4=
EXTT5=
EXTT6=
EXTT7=
EXTT8=
EXTT9=
EXTT10=
EXTT11=
PLAYORDER=
